<svg width="507" height="513" viewBox="0 0 507 513" fill="none" xmlns="http://www.w3.org/2000/svg">
<g clip-path="url(#clip0_2_200)">
<path d="M0 0H501C504.314 0 507 2.68629 507 6V507C507 510.314 504.314 513 501 513H0V0Z" fill="#EE4954"/>
<rect width="11.6464" height="708" transform="translate(-118.82 -65.2661) rotate(-31.451)" fill="#741C2B"/>
<rect width="11.6464" height="708" transform="translate(-99 -70.9233) rotate(-31.451)" fill="#741C2B"/>
<rect width="11.6464" height="708" transform="translate(-79 -76.9233) rotate(-31.451)" fill="#741C2B"/>
<rect width="11.6464" height="708" transform="translate(-61 -84.9233) rotate(-31.451)" fill="#741C2B"/>
<rect width="11.6464" height="708" transform="translate(-32 -76.9233) rotate(-31.451)" fill="#741C2B"/>
<rect width="11.6464" height="281.669" transform="translate(173.402 -202) rotate(24.9277)" fill="#741C2B"/>
<rect width="11.6464" height="281.669" transform="translate(183.715 -179) rotate(24.9277)" fill="#741C2B"/>
<rect width="11.6464" height="281.669" transform="translate(195.715 -159) rotate(24.9277)" fill="#741C2B"/>
<rect width="11.6464" height="281.669" transform="translate(207.715 -138) rotate(24.9277)" fill="#741C2B"/>
<rect width="11.6464" height="336.623" transform="translate(11.877 144.78) rotate(24.9277)" fill="#741C2B"/>
<rect width="11.6464" height="136.089" transform="translate(24.3575 165.018) rotate(24.9277)" fill="#741C2B"/>
<rect width="11.6464" height="176.637" transform="translate(36.4473 184.247) rotate(24.9277)" fill="#741C2B"/>
<rect width="11.6464" height="163.545" transform="translate(48.9294 204.12) rotate(24.9277)" fill="#741C2B"/>
<rect width="11.6464" height="496.093" transform="translate(111.57 114.852) rotate(-31.451)" fill="#9A161E"/>
<rect width="11.6464" height="496.093" transform="translate(136 110.077) rotate(-31.451)" fill="#B70F2C"/>
<rect width="11.6464" height="496.093" transform="translate(160 109.077) rotate(-31.451)" fill="#D60C2F"/>
<rect width="11.6464" height="284.661" transform="translate(231.715 -143) rotate(24.9277)" fill="#9A161E"/>
<rect width="11.6464" height="284.661" transform="translate(255.977 -148) rotate(24.9277)" fill="#B70F2C"/>
<rect width="11.6464" height="284.661" transform="translate(279.977 -148) rotate(24.9277)" fill="#D60C2F"/>
<rect width="11.6464" height="496.093" transform="translate(184 109.077) rotate(-31.451)" fill="#E3313C"/>
<rect width="11.6464" height="284.661" transform="translate(303.977 -148) rotate(24.9277)" fill="#E3313C"/>
<rect width="11.6464" height="496.093" transform="translate(209 110.077) rotate(-31.451)" fill="#EF3A45"/>
<rect width="11.6464" height="284.661" transform="translate(328.977 -147) rotate(24.9277)" fill="#EF3A45"/>
</g>
<defs>
<clipPath id="clip0_2_200">
<path d="M0 0H501C504.314 0 507 2.68629 507 6V507C507 510.314 504.314 513 501 513H0V0Z" fill="white"/>
</clipPath>
</defs>
</svg>
