<svg width="24" height="23" viewBox="0 0 24 23" fill="none" xmlns="http://www.w3.org/2000/svg">
<path d="M4.97799 12.4166H16.1075L11.2452 16.89C10.8566 17.2475 10.8566 17.8341 11.2452 18.1916C11.3374 18.2766 11.4469 18.344 11.5674 18.39C11.6879 18.436 11.8172 18.4597 11.9476 18.4597C12.0781 18.4597 12.2074 18.436 12.3279 18.39C12.4484 18.344 12.5579 18.2766 12.6501 18.1916L19.2162 12.1508C19.6048 11.7933 19.6048 11.2158 19.2162 10.8583L12.6501 4.81748C12.5578 4.73261 12.4483 4.66529 12.3278 4.61936C12.2073 4.57343 12.0781 4.54979 11.9476 4.54979C11.8172 4.54979 11.688 4.57343 11.5675 4.61936C11.447 4.66529 11.3374 4.73261 11.2452 4.81748C11.153 4.90234 11.0798 5.0031 11.0299 5.11398C10.9799 5.22486 10.9542 5.34371 10.9542 5.46373C10.9542 5.58375 10.9799 5.70259 11.0299 5.81348C11.0798 5.92436 11.153 6.02511 11.2452 6.10998L16.1075 10.5833H4.97799C4.42998 10.5833 3.98161 10.9958 3.98161 11.5C3.98161 12.0041 4.42998 12.4166 4.97799 12.4166Z" fill="#7B0015"/>
</svg>
