<svg width="24" height="22" viewBox="0 0 24 22" fill="none" xmlns="http://www.w3.org/2000/svg">
<path d="M4.97801 11.9166H16.1075L11.2452 16.39C10.8566 16.7475 10.8566 17.3341 11.2452 17.6916C11.3374 17.7766 11.4469 17.844 11.5674 17.89C11.688 17.936 11.8172 17.9597 11.9477 17.9597C12.0782 17.9597 12.2074 17.936 12.3279 17.89C12.4484 17.844 12.5579 17.7766 12.6501 17.6916L19.2162 11.6508C19.6048 11.2933 19.6048 10.7158 19.2162 10.3583L12.6501 4.31748C12.5579 4.23261 12.4483 4.16529 12.3278 4.11936C12.2073 4.07343 12.0781 4.04979 11.9477 4.04979C11.8172 4.04979 11.688 4.07343 11.5675 4.11936C11.447 4.16529 11.3375 4.23261 11.2452 4.31748C11.153 4.40234 11.0798 4.5031 11.0299 4.61398C10.9799 4.72486 10.9543 4.84371 10.9543 4.96373C10.9543 5.08375 10.9799 5.20259 11.0299 5.31348C11.0798 5.42436 11.153 5.52511 11.2452 5.60998L16.1075 10.0833H4.97801C4.43 10.0833 3.98163 10.4958 3.98163 11C3.98163 11.5041 4.43 11.9166 4.97801 11.9166Z" fill="#2F5E00"/>
</svg>
